<?xml version="1.0" encoding="utf-8"?>
<!-- Generator: Adobe Illustrator 24.3.0, SVG Export Plug-In . SVG Version: 6.00 Build 0)  -->
<!DOCTYPE svg PUBLIC "-//W3C//DTD SVG 1.1//EN" "http://www.w3.org/Graphics/SVG/1.1/DTD/svg11.dtd" [
	<!ENTITY ns_extend "http://ns.adobe.com/Extensibility/1.0/">
	<!ENTITY ns_ai "http://ns.adobe.com/AdobeIllustrator/10.0/">
	<!ENTITY ns_graphs "http://ns.adobe.com/Graphs/1.0/">
	<!ENTITY ns_vars "http://ns.adobe.com/Variables/1.0/">
	<!ENTITY ns_imrep "http://ns.adobe.com/ImageReplacement/1.0/">
	<!ENTITY ns_sfw "http://ns.adobe.com/SaveForWeb/1.0/">
	<!ENTITY ns_custom "http://ns.adobe.com/GenericCustomNamespace/1.0/">
	<!ENTITY ns_adobe_xpath "http://ns.adobe.com/XPath/1.0/">
]>
<svg version="1.1" id="Livello_1" xmlns:x="&ns_extend;" xmlns:i="&ns_ai;" xmlns:graph="&ns_graphs;"
	 xmlns="http://www.w3.org/2000/svg" xmlns:xlink="http://www.w3.org/1999/xlink" x="0px" y="0px" viewBox="0 0 64 64"
	 style="enable-background:new 0 0 64 64;" xml:space="preserve">
<style type="text/css">
	.st0{fill:#333333;}
	.st1{display:none;fill:#FFFFFF;}
	.st2{enable-background:new    ;}
</style>
<metadata>
	<sfw  xmlns="&ns_sfw;">
		<slices></slices>
		<sliceSourceBounds  bottomLeftOrigin="true" height="62" width="62" x="1" y="1"></sliceSourceBounds>
	</sfw>
</metadata>
<g>
	<path class="st0" d="M53.9,10.1C48.1,4.2,40.3,1,32,1s-16.1,3.2-21.9,9.1C4.2,15.9,1,23.7,1,32s3.2,16.1,9.1,21.9S23.7,63,32,63
		s16.1-3.2,21.9-9.1C59.8,48.1,63,40.3,63,32S59.8,15.9,53.9,10.1z M32,61.7C15.6,61.7,2.3,48.4,2.3,32S15.6,2.3,32,2.3
		S61.7,15.6,61.7,32S48.4,61.7,32,61.7z"/>
	<circle class="st1" cx="32" cy="32" r="29.7"/>
	<g class="st2">
		<path class="st0" d="M20.1,34.4h-7.8L10.7,38H9l6.2-13.7h2L23.4,38h-1.7L20.1,34.4z M19.4,32.8l-3.2-7.3L13,32.8H19.4z"/>
	</g>
	<g class="st2">
		<path class="st0" d="M51.7,34.3h-7.8l-1.6,3.6h-1.8l6.2-13.7h2L55,37.9h-1.7L51.7,34.3z M51,32.8l-3.2-7.3l-3.2,7.3H51z"/>
	</g>
	<path class="st0" d="M32.1,42.6c-3.1,0-6-0.4-8.7-1.2v1.2c2.5,0.9,5.4,1.4,8.7,1.4c3.2,0,6-0.5,8.3-1.4v-1.2
		C37.9,42.2,35.2,42.6,32.1,42.6z"/>
</g>
</svg>
